<mxfile host="www.draw.io" modified="2023-05-19T21:21:18.438Z" agent="Mozilla/5.0 (Windows NT 10.0; Win64; x64) AppleWebKit/537.36 (KHTML, like Gecko) Chrome/113.0.0.0 Safari/537.36" etag="p5M7Iiuv7LR1_2Qk01W-" version="21.3.2" type="device">
  <diagram name="Page-1" id="n4gKtFZ646ariqvRMWU7">
    <mxGraphModel dx="1120" dy="452" grid="1" gridSize="10" guides="1" tooltips="1" connect="1" arrows="1" fold="1" page="1" pageScale="1" pageWidth="1169" pageHeight="827" math="0" shadow="0">
      <root>
        <mxCell id="0" />
        <mxCell id="1" parent="0" />
        <mxCell id="Q14rD7YLQRJZ2Xi9FxMg-1" value="clientes" style="rounded=0;whiteSpace=wrap;html=1;" vertex="1" parent="1">
          <mxGeometry x="110" y="130" width="120" height="60" as="geometry" />
        </mxCell>
        <mxCell id="Q14rD7YLQRJZ2Xi9FxMg-2" value="productos" style="rounded=0;whiteSpace=wrap;html=1;" vertex="1" parent="1">
          <mxGeometry x="525" y="70" width="120" height="60" as="geometry" />
        </mxCell>
        <mxCell id="Q14rD7YLQRJZ2Xi9FxMg-3" value="empleados" style="rounded=0;whiteSpace=wrap;html=1;" vertex="1" parent="1">
          <mxGeometry x="140" y="370" width="170" height="60" as="geometry" />
        </mxCell>
        <mxCell id="Q14rD7YLQRJZ2Xi9FxMg-4" value="ventas" style="rounded=0;whiteSpace=wrap;html=1;" vertex="1" parent="1">
          <mxGeometry x="540" y="330" width="120" height="60" as="geometry" />
        </mxCell>
        <mxCell id="Q14rD7YLQRJZ2Xi9FxMg-5" value="nombre" style="ellipse;whiteSpace=wrap;html=1;" vertex="1" parent="1">
          <mxGeometry x="90" y="40" width="80" height="40" as="geometry" />
        </mxCell>
        <mxCell id="Q14rD7YLQRJZ2Xi9FxMg-7" value="apellido" style="ellipse;whiteSpace=wrap;html=1;" vertex="1" parent="1">
          <mxGeometry x="220" y="40" width="80" height="40" as="geometry" />
        </mxCell>
        <mxCell id="Q14rD7YLQRJZ2Xi9FxMg-9" value="" style="endArrow=none;html=1;rounded=0;entryX=0.8;entryY=1.05;entryDx=0;entryDy=0;entryPerimeter=0;exitX=0.433;exitY=-0.067;exitDx=0;exitDy=0;exitPerimeter=0;" edge="1" parent="1" source="Q14rD7YLQRJZ2Xi9FxMg-1" target="Q14rD7YLQRJZ2Xi9FxMg-5">
          <mxGeometry width="50" height="50" relative="1" as="geometry">
            <mxPoint x="550" y="260" as="sourcePoint" />
            <mxPoint x="600" y="210" as="targetPoint" />
          </mxGeometry>
        </mxCell>
        <mxCell id="Q14rD7YLQRJZ2Xi9FxMg-10" style="edgeStyle=orthogonalEdgeStyle;rounded=0;orthogonalLoop=1;jettySize=auto;html=1;exitX=0;exitY=1;exitDx=0;exitDy=0;entryX=0.25;entryY=0.85;entryDx=0;entryDy=0;entryPerimeter=0;" edge="1" parent="1" source="Q14rD7YLQRJZ2Xi9FxMg-7" target="Q14rD7YLQRJZ2Xi9FxMg-7">
          <mxGeometry relative="1" as="geometry" />
        </mxCell>
        <mxCell id="Q14rD7YLQRJZ2Xi9FxMg-11" value="mail" style="ellipse;whiteSpace=wrap;html=1;" vertex="1" parent="1">
          <mxGeometry x="260" y="110" width="80" height="40" as="geometry" />
        </mxCell>
        <mxCell id="Q14rD7YLQRJZ2Xi9FxMg-12" value="dni" style="ellipse;whiteSpace=wrap;html=1;" vertex="1" parent="1">
          <mxGeometry x="250" y="200" width="80" height="40" as="geometry" />
        </mxCell>
        <mxCell id="Q14rD7YLQRJZ2Xi9FxMg-13" value="" style="endArrow=none;html=1;rounded=0;entryX=0;entryY=0;entryDx=0;entryDy=0;" edge="1" parent="1" source="Q14rD7YLQRJZ2Xi9FxMg-1" target="Q14rD7YLQRJZ2Xi9FxMg-12">
          <mxGeometry width="50" height="50" relative="1" as="geometry">
            <mxPoint x="550" y="260" as="sourcePoint" />
            <mxPoint x="600" y="210" as="targetPoint" />
          </mxGeometry>
        </mxCell>
        <mxCell id="Q14rD7YLQRJZ2Xi9FxMg-14" value="" style="endArrow=none;html=1;rounded=0;entryX=0.038;entryY=0.85;entryDx=0;entryDy=0;exitX=1;exitY=0.5;exitDx=0;exitDy=0;entryPerimeter=0;" edge="1" parent="1" source="Q14rD7YLQRJZ2Xi9FxMg-1" target="Q14rD7YLQRJZ2Xi9FxMg-11">
          <mxGeometry width="50" height="50" relative="1" as="geometry">
            <mxPoint x="240" y="200" as="sourcePoint" />
            <mxPoint x="272" y="216" as="targetPoint" />
          </mxGeometry>
        </mxCell>
        <mxCell id="Q14rD7YLQRJZ2Xi9FxMg-15" value="" style="endArrow=none;html=1;rounded=0;entryX=0;entryY=1;entryDx=0;entryDy=0;exitX=0.933;exitY=-0.033;exitDx=0;exitDy=0;exitPerimeter=0;" edge="1" parent="1" source="Q14rD7YLQRJZ2Xi9FxMg-1" target="Q14rD7YLQRJZ2Xi9FxMg-7">
          <mxGeometry width="50" height="50" relative="1" as="geometry">
            <mxPoint x="250" y="210" as="sourcePoint" />
            <mxPoint x="282" y="226" as="targetPoint" />
          </mxGeometry>
        </mxCell>
        <mxCell id="Q14rD7YLQRJZ2Xi9FxMg-16" value="&lt;u&gt;id&lt;/u&gt;" style="ellipse;whiteSpace=wrap;html=1;" vertex="1" parent="1">
          <mxGeometry x="20" y="230" width="80" height="40" as="geometry" />
        </mxCell>
        <mxCell id="Q14rD7YLQRJZ2Xi9FxMg-17" value="" style="endArrow=none;html=1;rounded=0;entryX=0.25;entryY=1;entryDx=0;entryDy=0;" edge="1" parent="1" source="Q14rD7YLQRJZ2Xi9FxMg-16" target="Q14rD7YLQRJZ2Xi9FxMg-1">
          <mxGeometry width="50" height="50" relative="1" as="geometry">
            <mxPoint x="550" y="260" as="sourcePoint" />
            <mxPoint x="600" y="210" as="targetPoint" />
          </mxGeometry>
        </mxCell>
      </root>
    </mxGraphModel>
  </diagram>
</mxfile>
